<mxfile host="87057a95-e17d-44af-bc57-93062b545e35" modified="2020-08-26T09:12:31.199Z" agent="5.0 (Windows NT 10.0; Win64; x64) AppleWebKit/537.36 (KHTML, like Gecko) Code/1.48.1 Chrome/78.0.3904.130 Electron/7.3.2 Safari/537.36" etag="VTVc4msyksvwVqGQlwSp" version="13.1.3">
    <diagram id="87FGbv0y3CxCdWk-Q4nV" name="Page-1">
        <mxGraphModel dx="1705" dy="505" grid="1" gridSize="10" guides="1" tooltips="1" connect="1" arrows="1" fold="1" page="1" pageScale="1" pageWidth="827" pageHeight="1169" math="0" shadow="0">
            <root>
                <mxCell id="0"/>
                <mxCell id="1" parent="0"/>
                <mxCell id="Xm_MsKvLFg5GjumQJe7x-57" value="break" style="shape=umlFrame;whiteSpace=wrap;html=1;" parent="1" vertex="1">
                    <mxGeometry x="130" y="580" width="470" height="70" as="geometry"/>
                </mxCell>
                <mxCell id="Xm_MsKvLFg5GjumQJe7x-19" value="alt" style="shape=umlFrame;whiteSpace=wrap;html=1;" parent="1" vertex="1">
                    <mxGeometry x="90" y="210" width="550" height="630" as="geometry"/>
                </mxCell>
                <mxCell id="Xm_MsKvLFg5GjumQJe7x-29" value="alt" style="shape=umlFrame;whiteSpace=wrap;html=1;" parent="1" vertex="1">
                    <mxGeometry x="105" y="280" width="510" height="490" as="geometry"/>
                </mxCell>
                <mxCell id="Xm_MsKvLFg5GjumQJe7x-50" value="loop" style="shape=umlFrame;whiteSpace=wrap;html=1;" parent="1" vertex="1">
                    <mxGeometry x="120" y="340" width="490" height="320" as="geometry"/>
                </mxCell>
                <mxCell id="Xm_MsKvLFg5GjumQJe7x-38" value="opt" style="shape=umlFrame;whiteSpace=wrap;html=1;" parent="1" vertex="1">
                    <mxGeometry x="125" y="390" width="470" height="80" as="geometry"/>
                </mxCell>
                <mxCell id="Xm_MsKvLFg5GjumQJe7x-35" value="" style="endArrow=classic;html=1;" parent="1" edge="1">
                    <mxGeometry width="50" height="50" relative="1" as="geometry">
                        <mxPoint x="560" y="420" as="sourcePoint"/>
                        <mxPoint x="200" y="420" as="targetPoint"/>
                    </mxGeometry>
                </mxCell>
                <mxCell id="Xm_MsKvLFg5GjumQJe7x-37" value="repeat" style="edgeLabel;html=1;align=center;verticalAlign=middle;resizable=0;points=[];" parent="Xm_MsKvLFg5GjumQJe7x-35" vertex="1" connectable="0">
                    <mxGeometry x="0.1831" relative="1" as="geometry">
                        <mxPoint x="13.1" y="-10" as="offset"/>
                    </mxGeometry>
                </mxCell>
                <mxCell id="Xm_MsKvLFg5GjumQJe7x-4" value="Server" style="rounded=0;whiteSpace=wrap;html=1;" parent="1" vertex="1">
                    <mxGeometry x="140" y="60" width="120" height="60" as="geometry"/>
                </mxCell>
                <mxCell id="Xm_MsKvLFg5GjumQJe7x-5" value="frontend" style="rounded=0;whiteSpace=wrap;html=1;" parent="1" vertex="1">
                    <mxGeometry x="500" y="60" width="120" height="60" as="geometry"/>
                </mxCell>
                <mxCell id="Xm_MsKvLFg5GjumQJe7x-6" value="" style="endArrow=none;dashed=1;html=1;entryX=0.5;entryY=1;entryDx=0;entryDy=0;" parent="1" target="Xm_MsKvLFg5GjumQJe7x-4" edge="1">
                    <mxGeometry width="50" height="50" relative="1" as="geometry">
                        <mxPoint x="200" y="810" as="sourcePoint"/>
                        <mxPoint x="370" y="440" as="targetPoint"/>
                    </mxGeometry>
                </mxCell>
                <mxCell id="Xm_MsKvLFg5GjumQJe7x-7" value="" style="endArrow=none;dashed=1;html=1;entryX=0.5;entryY=1;entryDx=0;entryDy=0;" parent="1" edge="1">
                    <mxGeometry width="50" height="50" relative="1" as="geometry">
                        <mxPoint x="560" y="810" as="sourcePoint"/>
                        <mxPoint x="559.5" y="120" as="targetPoint"/>
                    </mxGeometry>
                </mxCell>
                <mxCell id="Xm_MsKvLFg5GjumQJe7x-8" value="" style="endArrow=classic;html=1;" parent="1" edge="1">
                    <mxGeometry width="50" height="50" relative="1" as="geometry">
                        <mxPoint x="560" y="160" as="sourcePoint"/>
                        <mxPoint x="200" y="160" as="targetPoint"/>
                    </mxGeometry>
                </mxCell>
                <mxCell id="Xm_MsKvLFg5GjumQJe7x-9" value="connection" style="edgeLabel;html=1;align=center;verticalAlign=middle;resizable=0;points=[];" parent="Xm_MsKvLFg5GjumQJe7x-8" vertex="1" connectable="0">
                    <mxGeometry x="-0.4" y="2" relative="1" as="geometry">
                        <mxPoint x="-72" y="-12" as="offset"/>
                    </mxGeometry>
                </mxCell>
                <mxCell id="Xm_MsKvLFg5GjumQJe7x-10" value="Socket.io" style="text;html=1;align=center;verticalAlign=middle;resizable=0;points=[];autosize=1;" parent="1" vertex="1">
                    <mxGeometry x="354" y="20" width="60" height="20" as="geometry"/>
                </mxCell>
                <mxCell id="Xm_MsKvLFg5GjumQJe7x-11" value="" style="endArrow=classic;html=1;" parent="1" edge="1">
                    <mxGeometry width="50" height="50" relative="1" as="geometry">
                        <mxPoint x="200" y="200" as="sourcePoint"/>
                        <mxPoint x="560" y="200" as="targetPoint"/>
                    </mxGeometry>
                </mxCell>
                <mxCell id="Xm_MsKvLFg5GjumQJe7x-12" value="status {status: &lt;b&gt;state&lt;/b&gt;}" style="edgeLabel;html=1;align=center;verticalAlign=middle;resizable=0;points=[];" parent="Xm_MsKvLFg5GjumQJe7x-11" vertex="1" connectable="0">
                    <mxGeometry x="-0.3333" y="-1" relative="1" as="geometry">
                        <mxPoint x="50" y="-11" as="offset"/>
                    </mxGeometry>
                </mxCell>
                <mxCell id="Xm_MsKvLFg5GjumQJe7x-15" style="edgeStyle=orthogonalEdgeStyle;rounded=0;orthogonalLoop=1;jettySize=auto;html=1;dashed=1;dashPattern=1 1;" parent="1" source="Xm_MsKvLFg5GjumQJe7x-13" edge="1">
                    <mxGeometry relative="1" as="geometry">
                        <mxPoint x="420" y="189.9999999999999" as="targetPoint"/>
                    </mxGeometry>
                </mxCell>
                <mxCell id="Xm_MsKvLFg5GjumQJe7x-13" value="state può essere:&lt;br&gt;- ready&lt;br&gt;- maintenance&lt;br&gt;- other" style="shape=note;whiteSpace=wrap;html=1;backgroundOutline=1;darkOpacity=0.05;size=16;" parent="1" vertex="1">
                    <mxGeometry x="640" y="140" width="80" height="100" as="geometry"/>
                </mxCell>
                <mxCell id="Xm_MsKvLFg5GjumQJe7x-20" value="" style="endArrow=none;dashed=1;html=1;exitX=-0.001;exitY=0.897;exitDx=0;exitDy=0;exitPerimeter=0;" parent="1" source="Xm_MsKvLFg5GjumQJe7x-19" edge="1">
                    <mxGeometry width="50" height="50" relative="1" as="geometry">
                        <mxPoint x="390" y="300" as="sourcePoint"/>
                        <mxPoint x="640" y="775" as="targetPoint"/>
                    </mxGeometry>
                </mxCell>
                <mxCell id="Xm_MsKvLFg5GjumQJe7x-21" value="&lt;b&gt;state&lt;/b&gt; = ready" style="text;html=1;align=center;verticalAlign=middle;resizable=0;points=[];autosize=1;" parent="1" vertex="1">
                    <mxGeometry x="100" y="250" width="90" height="20" as="geometry"/>
                </mxCell>
                <mxCell id="Xm_MsKvLFg5GjumQJe7x-22" value="else" style="text;html=1;align=center;verticalAlign=middle;resizable=0;points=[];autosize=1;rotation=0;" parent="1" vertex="1">
                    <mxGeometry x="110" y="730" width="40" height="20" as="geometry"/>
                </mxCell>
                <mxCell id="Xm_MsKvLFg5GjumQJe7x-23" value="" style="endArrow=classic;html=1;" parent="1" edge="1">
                    <mxGeometry width="50" height="50" relative="1" as="geometry">
                        <mxPoint x="560" y="250" as="sourcePoint"/>
                        <mxPoint x="200" y="250" as="targetPoint"/>
                    </mxGeometry>
                </mxCell>
                <mxCell id="Xm_MsKvLFg5GjumQJe7x-24" value="start" style="edgeLabel;html=1;align=center;verticalAlign=middle;resizable=0;points=[];" parent="Xm_MsKvLFg5GjumQJe7x-23" vertex="1" connectable="0">
                    <mxGeometry x="0.0458" relative="1" as="geometry">
                        <mxPoint y="-10" as="offset"/>
                    </mxGeometry>
                </mxCell>
                <mxCell id="Xm_MsKvLFg5GjumQJe7x-26" style="edgeStyle=orthogonalEdgeStyle;rounded=0;orthogonalLoop=1;jettySize=auto;html=1;dashed=1;dashPattern=1 1;exitX=0.5;exitY=1;exitDx=0;exitDy=0;exitPerimeter=0;" parent="1" source="Xm_MsKvLFg5GjumQJe7x-25" edge="1">
                    <mxGeometry relative="1" as="geometry">
                        <mxPoint x="410" y="150" as="targetPoint"/>
                        <Array as="points">
                            <mxPoint x="720" y="130"/>
                            <mxPoint x="610" y="130"/>
                            <mxPoint x="610" y="150"/>
                        </Array>
                    </mxGeometry>
                </mxCell>
                <mxCell id="Xm_MsKvLFg5GjumQJe7x-25" value="connection può essere iniziata con il JWT nel campo &lt;b&gt;authentication &lt;/b&gt;nel payload&lt;b&gt;&amp;nbsp;&lt;/b&gt;per giocare con un profilo registrato" style="shape=note;whiteSpace=wrap;html=1;backgroundOutline=1;darkOpacity=0.05;size=17;" parent="1" vertex="1">
                    <mxGeometry x="660" y="10" width="120" height="110" as="geometry"/>
                </mxCell>
                <mxCell id="Xm_MsKvLFg5GjumQJe7x-30" value="(jwt present &amp;amp;&amp;amp; ok)&lt;br&gt;||&lt;br&gt;(jwt not present)" style="text;html=1;align=center;verticalAlign=middle;resizable=0;points=[];autosize=1;" parent="1" vertex="1">
                    <mxGeometry x="200" y="280" width="120" height="50" as="geometry"/>
                </mxCell>
                <mxCell id="Xm_MsKvLFg5GjumQJe7x-33" value="" style="endArrow=classic;html=1;" parent="1" edge="1">
                    <mxGeometry width="50" height="50" relative="1" as="geometry">
                        <mxPoint x="200" y="380" as="sourcePoint"/>
                        <mxPoint x="560" y="380" as="targetPoint"/>
                    </mxGeometry>
                </mxCell>
                <mxCell id="Xm_MsKvLFg5GjumQJe7x-34" value="guess { password1 : &lt;b&gt;psw1&lt;/b&gt;, value1: &lt;b&gt;val1&lt;/b&gt;, &lt;br&gt;password2: &lt;b&gt;psw2&lt;/b&gt;, timeout: &lt;b&gt;t, &lt;/b&gt;score: &lt;b&gt;score&lt;/b&gt;, guesses: &lt;b&gt;g&lt;/b&gt;}&lt;span style=&quot;color: rgba(0 , 0 , 0 , 0) ; font-family: monospace ; font-size: 0px ; background-color: rgb(248 , 249 , 250)&quot;&gt;%3CmxGraphModel%3E%3Croot%3E%3CmxCell%20id%3D%220%22%2F%3E%3CmxCell%20id%3D%221%22%20parent%3D%220%22%2F%3E%3CmxCell%20id%3D%222%22%20value%3D%22%22%20style%3D%22endArrow%3Dnone%3Bdashed%3D1%3Bhtml%3D1%3BentryX%3D0.5%3BentryY%3D1%3BentryDx%3D0%3BentryDy%3D0%3B%22%20edge%3D%221%22%20parent%3D%221%22%3E%3CmxGeometry%20width%3D%2250%22%20height%3D%2250%22%20relative%3D%221%22%20as%3D%22geometry%22%3E%3CmxPoint%20x%3D%22200%22%20y%3D%22760%22%20as%3D%22sourcePoint%22%2F%3E%3CmxPoint%20x%3D%22200%22%20y%3D%22120%22%20as%3D%22targetPoint%22%2F%3E%3C%2FmxGeometry%3E%3C%2FmxCell%3E%3C%2Froot%3E%3C%2FmxGraphModel%3E&lt;b&gt;v&lt;/b&gt;&lt;/span&gt;" style="edgeLabel;html=1;align=center;verticalAlign=middle;resizable=0;points=[];" parent="Xm_MsKvLFg5GjumQJe7x-33" vertex="1" connectable="0">
                    <mxGeometry x="-0.1141" relative="1" as="geometry">
                        <mxPoint x="5.6899999999999995" y="-20" as="offset"/>
                    </mxGeometry>
                </mxCell>
                <mxCell id="Xm_MsKvLFg5GjumQJe7x-39" value="" style="endArrow=classic;html=1;" parent="1" edge="1">
                    <mxGeometry width="50" height="50" relative="1" as="geometry">
                        <mxPoint x="200.0000000000001" y="460" as="sourcePoint"/>
                        <mxPoint x="560" y="460" as="targetPoint"/>
                    </mxGeometry>
                </mxCell>
                <mxCell id="Xm_MsKvLFg5GjumQJe7x-40" value="guess { password1 : &lt;b&gt;psw1&lt;/b&gt;, value1: &lt;b&gt;val1&lt;/b&gt;, &lt;br&gt;password2: &lt;b&gt;psw2&lt;/b&gt;, timeout: &lt;b&gt;t}&lt;/b&gt;&lt;span style=&quot;color: rgba(0 , 0 , 0 , 0) ; font-family: monospace ; font-size: 0px ; background-color: rgb(248 , 249 , 250)&quot;&gt;%3CmxGraphModel%3E%3Croot%3E%3CmxCell%20id%3D%220%22%2F%3E%3CmxCell%20id%3D%221%22%20parent%3D%220%22%2F%3E%3CmxCell%20id%3D%222%22%20value%3D%22%22%20style%3D%22endArrow%3Dnone%3Bdashed%3D1%3Bhtml%3D1%3BentryX%3D0.5%3BentryY%3D1%3BentryDx%3D0%3BentryDy%3D0%3B%22%20edge%3D%221%22%20parent%3D%221%22%3E%3CmxGeometry%20width%3D%2250%22%20height%3D%2250%22%20relative%3D%221%22%20as%3D%22geometry%22%3E%3CmxPoint%20x%3D%22200%22%20y%3D%22760%22%20as%3D%22sourcePoint%22%2F%3E%3CmxPoint%20x%3D%22200%22%20y%3D%22120%22%20as%3D%22targetPoint%22%2F%3E%3C%2FmxGeometry%3E%3C%2FmxCell%3E%3C%2Froot%3E%3C%2FmxGraphModel%3E&lt;b&gt;v&lt;/b&gt;&lt;/span&gt;" style="edgeLabel;html=1;align=center;verticalAlign=middle;resizable=0;points=[];" parent="Xm_MsKvLFg5GjumQJe7x-39" vertex="1" connectable="0">
                    <mxGeometry x="-0.1141" relative="1" as="geometry">
                        <mxPoint x="5.6899999999999995" y="-20" as="offset"/>
                    </mxGeometry>
                </mxCell>
                <mxCell id="Xm_MsKvLFg5GjumQJe7x-43" value="" style="endArrow=classic;html=1;" parent="1" edge="1">
                    <mxGeometry width="50" height="50" relative="1" as="geometry">
                        <mxPoint x="560" y="529.31" as="sourcePoint"/>
                        <mxPoint x="200" y="529.31" as="targetPoint"/>
                    </mxGeometry>
                </mxCell>
                <mxCell id="Xm_MsKvLFg5GjumQJe7x-44" value="answer {higher: &lt;b&gt;psw&lt;/b&gt;}}" style="edgeLabel;html=1;align=center;verticalAlign=middle;resizable=0;points=[];" parent="Xm_MsKvLFg5GjumQJe7x-43" vertex="1" connectable="0">
                    <mxGeometry x="-0.0315" y="-2" relative="1" as="geometry">
                        <mxPoint x="-1.52" y="-8" as="offset"/>
                    </mxGeometry>
                </mxCell>
                <mxCell id="Xm_MsKvLFg5GjumQJe7x-46" style="edgeStyle=orthogonalEdgeStyle;rounded=0;orthogonalLoop=1;jettySize=auto;html=1;dashed=1;dashPattern=1 1;" parent="1" source="Xm_MsKvLFg5GjumQJe7x-45" edge="1">
                    <mxGeometry relative="1" as="geometry">
                        <mxPoint x="440" y="520" as="targetPoint"/>
                    </mxGeometry>
                </mxCell>
                <mxCell id="Xm_MsKvLFg5GjumQJe7x-45" value="&lt;b&gt;psw &lt;/b&gt;può valere o 1 o 2&lt;b&gt;&amp;nbsp;&lt;/b&gt;&lt;span style=&quot;color: rgba(0 , 0 , 0 , 0) ; font-family: monospace ; font-size: 0px&quot;&gt;%3CmxGraphModel%3E%3Croot%3E%3CmxCell%20id%3D%220%22%2F%3E%3CmxCell%20id%3D%221%22%20parent%3D%220%22%2F%3E%3CmxCell%20id%3D%222%22%20value%3D%22loop%22%20style%3D%22shape%3DumlFrame%3BwhiteSpace%3Dwrap%3Bhtml%3D1%3B%22%20vertex%3D%221%22%20parent%3D%221%22%3E%3CmxGeometry%20x%3D%22130%22%20y%3D%22400%22%20width%3D%22480%22%20height%3D%22160%22%20as%3D%22geometry%22%2F%3E%3C%2FmxCell%3E%3C%2Froot%3E%3C%2FmxGraphModel%3Evapuò valre&lt;/span&gt;" style="shape=note;whiteSpace=wrap;html=1;backgroundOutline=1;darkOpacity=0.05;size=12;" parent="1" vertex="1">
                    <mxGeometry x="670" y="430" width="80" height="100" as="geometry"/>
                </mxCell>
                <mxCell id="Xm_MsKvLFg5GjumQJe7x-51" value="do while &lt;br&gt;&lt;b&gt;answer &lt;br&gt;&lt;/b&gt;is correct" style="text;html=1;align=center;verticalAlign=middle;resizable=0;points=[];autosize=1;" parent="1" vertex="1">
                    <mxGeometry x="125" y="530" width="60" height="50" as="geometry"/>
                </mxCell>
                <mxCell id="Xm_MsKvLFg5GjumQJe7x-52" value="" style="endArrow=classic;html=1;" parent="1" edge="1">
                    <mxGeometry width="50" height="50" relative="1" as="geometry">
                        <mxPoint x="200" y="690" as="sourcePoint"/>
                        <mxPoint x="560" y="690" as="targetPoint"/>
                    </mxGeometry>
                </mxCell>
                <mxCell id="Xm_MsKvLFg5GjumQJe7x-53" value="gameend {score:&amp;nbsp;&lt;b&gt;score&lt;/b&gt;, guesses:&amp;nbsp;&lt;b&gt;g&lt;/b&gt;, duration: &lt;b&gt;time&lt;/b&gt;}" style="edgeLabel;html=1;align=center;verticalAlign=middle;resizable=0;points=[];" parent="Xm_MsKvLFg5GjumQJe7x-52" vertex="1" connectable="0">
                    <mxGeometry x="-0.192" relative="1" as="geometry">
                        <mxPoint y="-10" as="offset"/>
                    </mxGeometry>
                </mxCell>
                <mxCell id="Xm_MsKvLFg5GjumQJe7x-54" value="" style="endArrow=none;dashed=1;html=1;exitX=0.002;exitY=0.896;exitDx=0;exitDy=0;exitPerimeter=0;entryX=1.001;entryY=0.903;entryDx=0;entryDy=0;entryPerimeter=0;" parent="1" source="Xm_MsKvLFg5GjumQJe7x-29" target="Xm_MsKvLFg5GjumQJe7x-29" edge="1">
                    <mxGeometry width="50" height="50" relative="1" as="geometry">
                        <mxPoint x="410" y="550" as="sourcePoint"/>
                        <mxPoint x="460" y="500" as="targetPoint"/>
                    </mxGeometry>
                </mxCell>
                <mxCell id="Xm_MsKvLFg5GjumQJe7x-55" value="else" style="text;html=1;align=center;verticalAlign=middle;resizable=0;points=[];autosize=1;rotation=0;" parent="1" vertex="1">
                    <mxGeometry x="100" y="790" width="40" height="20" as="geometry"/>
                </mxCell>
                <mxCell id="Xm_MsKvLFg5GjumQJe7x-58" value="timeout expired" style="text;html=1;align=center;verticalAlign=middle;resizable=0;points=[];autosize=1;" parent="1" vertex="1">
                    <mxGeometry x="200" y="585" width="100" height="20" as="geometry"/>
                </mxCell>
                <mxCell id="Xm_MsKvLFg5GjumQJe7x-59" value="" style="endArrow=classic;html=1;" parent="1" edge="1">
                    <mxGeometry width="50" height="50" relative="1" as="geometry">
                        <mxPoint x="200" y="630" as="sourcePoint"/>
                        <mxPoint x="560" y="630" as="targetPoint"/>
                    </mxGeometry>
                </mxCell>
                <mxCell id="Xm_MsKvLFg5GjumQJe7x-60" value="timeout" style="edgeLabel;html=1;align=center;verticalAlign=middle;resizable=0;points=[];" parent="Xm_MsKvLFg5GjumQJe7x-59" vertex="1" connectable="0">
                    <mxGeometry x="-0.2495" y="1" relative="1" as="geometry">
                        <mxPoint x="14.83" y="-9" as="offset"/>
                    </mxGeometry>
                </mxCell>
                <mxCell id="Xm_MsKvLFg5GjumQJe7x-62" value="" style="endArrow=classic;html=1;" parent="1" edge="1">
                    <mxGeometry width="50" height="50" relative="1" as="geometry">
                        <mxPoint x="200" y="750" as="sourcePoint"/>
                        <mxPoint x="560" y="750" as="targetPoint"/>
                    </mxGeometry>
                </mxCell>
                <mxCell id="Xm_MsKvLFg5GjumQJe7x-64" value="failed {code: &lt;b&gt;errorcode&lt;/b&gt;, description: &lt;b&gt;text&lt;/b&gt;}" style="edgeLabel;html=1;align=center;verticalAlign=middle;resizable=0;points=[];" parent="Xm_MsKvLFg5GjumQJe7x-62" vertex="1" connectable="0">
                    <mxGeometry x="-0.5568" y="-2" relative="1" as="geometry">
                        <mxPoint x="82.93" y="-12" as="offset"/>
                    </mxGeometry>
                </mxCell>
                <mxCell id="Xm_MsKvLFg5GjumQJe7x-69" value="" style="shape=umlDestroy;whiteSpace=wrap;html=1;strokeWidth=3;" parent="1" vertex="1">
                    <mxGeometry x="195" y="820" width="10" height="10" as="geometry"/>
                </mxCell>
                <mxCell id="Xm_MsKvLFg5GjumQJe7x-72" value="" style="shape=umlDestroy;whiteSpace=wrap;html=1;strokeWidth=3;" parent="1" vertex="1">
                    <mxGeometry x="555" y="820" width="10" height="10" as="geometry"/>
                </mxCell>
                <mxCell id="Xm_MsKvLFg5GjumQJe7x-76" value="errors" style="shape=umlFrame;whiteSpace=wrap;html=1;" parent="1" vertex="1">
                    <mxGeometry x="140" y="860" width="460" height="150" as="geometry"/>
                </mxCell>
                <mxCell id="Xm_MsKvLFg5GjumQJe7x-77" value="" style="endArrow=none;dashed=1;html=1;" parent="1" source="zyYeEw9DviOeEFQDKdv3-1" edge="1">
                    <mxGeometry width="50" height="50" relative="1" as="geometry">
                        <mxPoint x="200" y="1040" as="sourcePoint"/>
                        <mxPoint x="200" y="850" as="targetPoint"/>
                    </mxGeometry>
                </mxCell>
                <mxCell id="Xm_MsKvLFg5GjumQJe7x-78" value="" style="endArrow=none;dashed=1;html=1;" parent="1" source="zyYeEw9DviOeEFQDKdv3-3" edge="1">
                    <mxGeometry width="50" height="50" relative="1" as="geometry">
                        <mxPoint x="559.4100000000001" y="1040" as="sourcePoint"/>
                        <mxPoint x="559.4100000000001" y="850" as="targetPoint"/>
                    </mxGeometry>
                </mxCell>
                <mxCell id="Xm_MsKvLFg5GjumQJe7x-79" value="" style="endArrow=classic;html=1;" parent="1" edge="1">
                    <mxGeometry width="50" height="50" relative="1" as="geometry">
                        <mxPoint x="200" y="940" as="sourcePoint"/>
                        <mxPoint x="560" y="940" as="targetPoint"/>
                        <Array as="points">
                            <mxPoint x="370" y="940"/>
                        </Array>
                    </mxGeometry>
                </mxCell>
                <mxCell id="Xm_MsKvLFg5GjumQJe7x-82" value="onerror&amp;nbsp;&lt;span style=&quot;font-size: 11px ; background-color: rgb(255 , 255 , 255)&quot;&gt;{code:&amp;nbsp;&lt;/span&gt;&lt;b style=&quot;font-size: 11px&quot;&gt;errorcode&lt;/b&gt;&lt;span style=&quot;font-size: 11px ; background-color: rgb(255 , 255 , 255)&quot;&gt;, description:&amp;nbsp;&lt;/span&gt;&lt;b style=&quot;font-size: 11px&quot;&gt;text&lt;/b&gt;&lt;span style=&quot;font-size: 11px ; background-color: rgb(255 , 255 , 255)&quot;&gt;}&lt;/span&gt;" style="text;html=1;align=center;verticalAlign=middle;resizable=0;points=[];autosize=1;" parent="1" vertex="1">
                    <mxGeometry x="250" y="910" width="230" height="20" as="geometry"/>
                </mxCell>
                <mxCell id="zyYeEw9DviOeEFQDKdv3-1" value="" style="shape=umlDestroy;whiteSpace=wrap;html=1;strokeWidth=3;" parent="1" vertex="1">
                    <mxGeometry x="195" y="990" width="10" height="10" as="geometry"/>
                </mxCell>
                <mxCell id="zyYeEw9DviOeEFQDKdv3-3" value="" style="shape=umlDestroy;whiteSpace=wrap;html=1;strokeWidth=3;" parent="1" vertex="1">
                    <mxGeometry x="555" y="990" width="10" height="10" as="geometry"/>
                </mxCell>
            </root>
        </mxGraphModel>
    </diagram>
</mxfile>
